<svg width="1024" height="280" viewBox="0 0 1024 280" fill="none" xmlns="http://www.w3.org/2000/svg">
<path d="M139.097 35C162.479 59.114 186.192 71.868 220.208 69.012C220.319 91.484 221.407 115.676 217.796 137.657C212.817 167.968 198.085 199.595 174.713 219.974C165.084 228.369 150.811 237.716 140.085 245.23C133.777 243.838 105.413 221.452 100.002 216.049C75.8417 191.932 61.302 157.911 58.7533 124.021C57.5381 107.862 58.1593 85.774 58.1552 69.004C97.1583 70.011 110.915 60.816 139.097 35Z" fill="#1A8989"/>
<path d="M138.485 69.4851C140.391 70.0531 146.662 75.1531 149.023 76.6311C162.085 84.8081 179.071 91.8381 194.429 93.3031C194.373 116.952 195.35 136.199 187.326 159.019C179.279 181.902 162.117 204.06 139.937 214.554C119.338 203.498 102.197 184.007 93.1255 162.527C83.6616 140.117 83.9024 117.123 83.7997 93.4001C103.97 91.4221 122.744 81.8801 138.485 69.4851Z" fill="white"/>
<path d="M133.066 90.285C151.239 88.855 163.314 94.817 177.095 106.128C173.047 109.795 170.316 112.449 166.541 116.422C152.551 106.404 144.316 103.186 126.794 106.456C114.546 110.406 108.84 115.015 101.092 125.191C97.5492 123.331 93.1743 120.507 89.6838 118.391C100.696 101.864 112.748 92.569 133.066 90.285Z" fill="#1A8989"/>
<path d="M178.252 107.976C180.087 109.078 183.452 113.831 184.834 115.663C180.892 118.2 176.924 120.955 172.97 123.542C171.946 122.051 170.853 120.033 169.927 118.435C162.678 127.394 154.527 136.077 147.805 145.377C143.304 151.605 148.969 154.951 138.731 158.84C121.225 158.494 123.876 137.626 139.832 139.411C145.506 135.445 152.16 129.646 157.543 125.272C164.47 119.644 171.578 113.885 178.252 107.976Z" fill="#1A8989"/>
<path d="M634.094 95.3141C660.772 93.1491 683.42 115.393 684.274 141.605C684.867 159.775 681.466 167.82 669.642 181.022C674.816 184.662 679.618 187.749 685.228 190.66C683.656 194.745 682.127 199.458 680.664 203.631C675.239 201.572 666.553 196.366 661.368 193.389L656.796 190.72C651.537 192.903 645.972 194.264 640.298 194.754C576.408 199.724 568.038 99.8422 634.094 95.3141ZM635.683 107.301C578.861 111.739 595.855 198.346 648.046 180.519L648.004 179.698C646.37 178.905 645.775 178.951 643.999 178.774C643.119 177.736 643.607 175.863 643.745 174.152C643.972 171.618 644.223 169.087 644.499 166.559C649.53 168.853 654.844 171.685 659.813 173.805C662.406 171.298 664.648 169.204 666.565 166.099C682.037 141.03 665.856 107.858 635.683 107.301Z" fill="#1A8989"/>
<path d="M487.532 123.765C498.8 122.402 507.919 125.986 515.302 134.518L515.321 126.097L527.281 126.098L527.316 192.133L515.335 192.104L515.264 183.348C512.838 186.401 511.237 187.976 508.192 190.32C504.484 192.833 500.248 194.462 495.811 195.082C475.806 197.92 460.094 183.197 457.369 163.998C455.912 154.308 458.504 144.445 464.536 136.722C470.43 129.077 478.031 124.965 487.532 123.765ZM515.317 155.866C513.382 142.973 501.372 134.081 488.475 135.993C475.547 137.911 466.63 149.957 468.569 162.881C470.509 175.806 482.569 184.703 495.491 182.741C508.381 180.784 517.252 168.759 515.317 155.866Z" fill="#1A8989"/>
<path d="M926.557 123.725C938.678 122.636 947.151 125.843 955.052 135.05L955.095 126.067L966.785 126.058L966.775 192.163L954.788 192.15L954.698 183.465C952.63 186.24 951.71 187.387 949.033 189.577C945.147 192.2 940.76 193.99 936.148 194.835C893.248 202.329 879.372 131.537 926.557 123.725ZM954.853 155.278C952.587 142.344 940.216 133.732 927.298 136.096C914.52 138.435 906.018 150.646 908.261 163.443C910.503 176.24 922.649 184.832 935.463 182.687C948.414 180.518 957.12 168.213 954.853 155.278Z" fill="#1A8989"/>
<path d="M801.585 124.032C821.181 121.733 838.923 135.769 841.197 155.367C843.471 174.965 829.414 192.691 809.812 194.941C790.247 197.186 772.559 183.159 770.289 163.595C768.019 144.031 782.024 126.326 801.585 124.032ZM829.684 158.03C828.854 144.893 817.647 134.847 804.498 135.456C795.794 135.858 787.983 140.926 784.066 148.709C780.151 156.492 780.737 165.783 785.601 173.013C790.465 180.243 798.85 184.287 807.536 183.592C820.657 182.542 830.513 171.167 829.684 158.03Z" fill="#1A8989"/>
<path d="M408.212 124.252C427.33 122.258 441.986 132.425 445.785 151.878C446.552 155.8 446.389 159.444 446.361 163.441C428.039 163.112 409.713 163.01 391.387 163.134C392.148 166.119 392.919 168.736 394.431 171.438C402.817 186.42 422.723 187.635 432.96 174.048L434.812 170.58C438.352 170.559 441.545 170.694 445.08 170.865C436.73 204.745 385.113 202.293 380.376 166.105C377.677 145.493 387.056 127.943 408.212 124.252ZM434.319 152.741C431.133 138.917 422.227 134.478 408.546 135.732C398.763 138.62 394.723 143.18 391.642 152.685C400.535 152.654 409.427 152.671 418.32 152.735C423.651 152.948 428.988 152.951 434.319 152.741Z" fill="#1A8989"/>
<path d="M287.076 95.2821C295.494 94.0371 306.61 96.4141 314.077 100.373C327.732 107.612 333.779 116.569 338.439 130.76L326.877 130.902C317.146 112.884 299.528 102.08 279.159 109.8C270.298 113.159 263.178 119.967 259.427 128.67C246.19 159.083 272.658 193.735 307.397 179.097C317.141 174.38 321.309 168.747 326.343 159.588C330.367 159.603 334.236 159.802 338.247 160.002C328.21 192.549 289.593 206.095 262.756 185.448C252.691 177.578 246.177 166.022 244.656 153.337C240.93 124.341 257.158 98.9441 287.076 95.2821Z" fill="#1A8989"/>
<path d="M699.297 126.05L710.762 126.051C710.632 140.228 710.166 155.026 710.944 169.136C712.083 184.195 729.503 188.024 739.294 178.533C746.043 171.991 743.991 158.414 744.247 149.568C744.466 142.021 744.255 134.025 744.252 126.445L755.345 126.295L755.431 142.014C755.53 158.699 755.461 175.384 755.221 192.067C751.938 192.11 747.488 192.979 744.821 191.605C743.488 189.778 743.895 190.429 743.63 187.922L743.069 187.768C728.853 201.197 704.343 195.169 700.121 175.367C698.711 168.752 699.185 161.069 699.201 154.264L699.297 126.05Z" fill="#1A8989"/>
<path d="M858.563 103.939L870.25 104.116L870.221 126.122L886.226 126.168L886.205 137.134C880.973 137.132 875.742 137.084 870.511 136.991C869.838 149.224 870.193 162.485 870.352 174.774C870.493 185.729 881.104 182.978 888.474 181.754L888.517 187.477L888.498 192.7C870.744 196.581 858.485 192.503 858.629 171.966C858.711 160.463 858.536 148.477 858.513 136.928L849.281 136.869C848.97 133.362 849.052 129.714 849.057 126.18L858.698 126.214C858.57 118.789 858.525 111.364 858.563 103.939Z" fill="#1A8989"/>
<path d="M353.24 93.031C356.988 92.972 360.932 93.048 364.699 93.058C363.894 124.779 364.774 159.941 364.802 191.994C361.595 192.337 356.608 192.145 353.236 192.109C352.731 159.736 353.288 125.564 353.24 93.031Z" fill="#1A8989"/>
<path d="M578.704 123.829L579.054 124.138C579.592 126.318 579.364 132.801 579.344 135.399C573.408 135.764 568.806 136.89 564.339 141.2C561.533 143.893 559.585 147.355 558.738 151.151C557.643 156.045 558.221 185.489 558.229 192.537C554.331 192.636 550.296 192.602 546.386 192.62L546.374 186.04C546.379 166.461 546.053 145.833 546.56 126.336L557.672 126.245L557.67 135.289C562.89 126.044 568.635 124.158 578.704 123.829Z" fill="#1A8989"/>
</svg>
